<?xml version="1.0" encoding="UTF-8" standalone="no"?><!DOCTYPE svg PUBLIC "-//W3C//DTD SVG 1.1//EN" "http://www.w3.org/Graphics/SVG/1.1/DTD/svg11.dtd"><svg width="100%" height="100%" viewBox="0 0 3508 2481" version="1.1" xmlns="http://www.w3.org/2000/svg" xmlns:xlink="http://www.w3.org/1999/xlink" xml:space="preserve" xmlns:serif="http://www.serif.com/" style="fill-rule:evenodd;clip-rule:evenodd;stroke-linejoin:round;stroke-miterlimit:2;"><rect id="Page-1" serif:id="Page 1" x="0" y="0" width="3507.875" height="2480.317" style="fill:none;"/><g id="Layer-1" serif:id="Layer 1"><path d="M961.078,1539.608c-6.117,-47.062 -12.237,-94.125 -18.354,-141.146c-0.929,-7.179 -3.442,-14.246 -7.254,-20.7l-454.946,-323.888c-2.429,1.475 -3.833,4.379 -3.246,8.092l20.633,130.046c3.725,23.371 17.921,45.846 38.358,60.671c135.742,98.517 271.483,196.987 407.221,295.5c8.692,6.296 18.867,1.312 17.587,-8.575" style="fill-rule:nonzero;"/><path d="M974.142,1077.065c-42.908,-1.133 -85.858,-2.267 -128.804,-3.4c-13.917,-0.346 -28.617,7.217 -39.371,20.279c-30.917,37.529 -61.829,75.017 -92.783,112.546l109.233,77.75c52.163,-62.196 104.321,-124.392 156.438,-186.588c7.042,-8.388 4.325,-20.329 -4.712,-20.588m-267.708,137.608c-80.975,98.288 -161.95,196.575 -242.967,294.821c-5.654,6.821 -3.246,16.425 4.087,16.333l119.308,-0.946c21.458,-0.204 43.867,-11.983 60.483,-31.821c56.079,-66.862 112.163,-133.771 168.242,-200.679l-109.154,-77.708Z" style="fill:#0156d7;fill-rule:nonzero;"/><path d="M715.859,1337.887c-10.112,-0.037 -18.654,-3.575 -25.629,-10.608c-6.975,-7.025 -10.442,-15.596 -10.4,-25.708c0.042,-10.371 3.579,-18.983 10.608,-25.829c7.025,-6.838 15.6,-10.246 25.712,-10.208c10.371,0.046 18.979,3.521 25.825,10.417c6.842,6.9 10.25,15.538 10.208,25.908c-0.046,10.113 -3.521,18.658 -10.413,25.629c-6.904,6.979 -15.542,10.446 -25.913,10.4" style="fill:#fff;fill-rule:nonzero;"/><path d="M716.35,1270.825c-0.075,0 -0.15,0 -0.229,-0.004c-8.746,-0.029 -15.942,2.821 -21.992,8.712c-6.025,5.867 -8.975,13.083 -9.008,22.067c-0.038,8.721 2.858,15.9 8.871,21.954c5.954,5.996 13.046,8.958 21.679,9.046l0.204,0c8.983,0.033 16.225,-2.854 22.129,-8.833c5.942,-6.017 8.85,-13.179 8.887,-21.929c0.033,-8.996 -2.8,-16.242 -8.675,-22.171c-5.825,-5.858 -12.979,-8.754 -21.867,-8.842m-0.783,72.354c-11.4,-0.112 -21.183,-4.204 -29.092,-12.179c-7.971,-8.029 -11.987,-17.933 -11.938,-29.45c0.05,-11.792 4.158,-21.754 12.212,-29.6c8.021,-7.8 17.917,-11.737 29.417,-11.708c11.346,0.083 21.712,4.087 29.558,11.975c7.846,7.904 11.796,17.892 11.75,29.671c-0.054,11.492 -4.071,21.358 -11.946,29.312c-7.892,7.996 -17.879,12.017 -29.688,11.983l-0.008,0c-0.087,0 -0.179,-0.004 -0.267,-0.004" style="fill:#fff;fill-rule:nonzero;"/><path d="M1074.773,1541.455l0,-606.042l92.638,0l380.075,467.517l-45.888,0l0,-467.517l110.829,0l0,606.042l-92.646,0l-379.204,-467.517l45.888,0l0,467.517l-111.692,0Z" style="fill-rule:nonzero;"/><rect x="1695.913" y="1079.133" width="107.35" height="462.321"/><path d="M2147.051,1073.074c37.504,0 70.554,7.221 99.121,21.642c28.583,14.438 51.371,36.662 68.396,66.663c17.029,30.021 25.542,68.396 25.542,115.15l0,264.929l-108.213,0l0,-251.075c0,-40.975 -9.529,-71.562 -28.571,-91.775c-19.054,-20.196 -46.183,-30.3 -81.388,-30.3c-25.408,0 -47.917,5.192 -67.525,15.583c-19.629,10.387 -34.783,25.842 -45.463,46.321c-10.683,20.492 -16.013,46.317 -16.013,77.487l0,233.758l-107.354,0l0,-462.325l103.025,0l0,125.533l-18.179,-38.954c15.588,-29.442 38.812,-52.233 69.692,-68.396c30.871,-16.154 66.513,-24.242 106.929,-24.242" style="fill-rule:nonzero;"/><path d="M2957.231,1541.455l0,-94.371l-5.2,-19.046l0,-163.629c0,-31.742 -9.667,-56.412 -29.004,-74.025c-19.337,-17.6 -48.625,-26.404 -87.875,-26.404c-25.408,0 -50.508,4.042 -75.317,12.117c-24.829,8.092 -46.183,19.346 -64.071,33.771l-42.421,-78.792c25.383,-19.046 55.108,-33.467 89.171,-43.287c34.05,-9.804 69.554,-14.717 106.492,-14.717c67.537,0 119.475,16.167 155.833,48.483c36.363,32.329 54.554,81.963 54.554,148.913l0,270.987l-102.162,0Zm-145.446,6.058c-34.642,0 -64.942,-5.921 -90.917,-17.75c-25.975,-11.817 -46.029,-28.271 -60.167,-49.346c-14.15,-21.058 -21.213,-44.871 -21.213,-71.429c0,-25.967 6.192,-49.346 18.617,-70.121c12.404,-20.783 32.742,-37.229 61.029,-49.35c28.275,-12.121 65.804,-18.183 112.55,-18.183l134.2,0l0,71.858l-126.404,0c-36.363,0 -61.042,5.925 -74.021,17.75c-12.983,11.838 -19.479,26.7 -19.479,44.588c0,19.046 7.796,34.346 23.371,45.887c15.588,11.55 37.233,17.312 64.942,17.312c26.537,0 50.346,-6.058 71.425,-18.179c21.058,-12.121 36.492,-30.008 46.312,-53.683l17.321,64.937c-10.388,27.133 -28.875,48.2 -55.417,63.204c-26.55,15.013 -60.6,22.504 -102.15,22.504" style="fill-rule:nonzero;"/><path d="M1747.22,1033.834c-17.537,0.033 -32.392,-6.017 -44.55,-18.146c-12.167,-12.117 -18.267,-26.946 -18.292,-44.483c-0.029,-17.987 6.021,-32.958 18.146,-44.9c12.117,-11.929 26.95,-17.925 44.492,-17.954c17.983,-0.025 32.95,5.917 44.892,17.808c11.933,11.9 17.925,26.846 17.954,44.833c0.025,17.538 -5.917,32.388 -17.804,44.55c-11.904,12.171 -26.85,18.267 -44.838,18.292" style="fill:#0156d7;fill-rule:nonzero;"/><path d="M2394.918,1715.477c-19.629,0 -38.521,-2.312 -56.7,-6.925c-18.192,-4.629 -33.625,-11.254 -46.325,-19.917l31.162,-80.517c16.754,12.121 37.812,18.183 63.208,18.183c19.621,0 34.912,-6.208 45.887,-18.612c10.954,-12.421 16.45,-30.737 16.45,-54.979l0,-473.575l108.225,0l0,470.979c0,50.783 -14.008,91.042 -42,120.775c-28,29.721 -67.958,44.587 -119.908,44.587" style="fill-rule:nonzero;"/><path d="M2501.311,1033.834c-17.537,0.033 -32.392,-6.017 -44.55,-18.146c-12.167,-12.117 -18.267,-26.946 -18.292,-44.483c-0.029,-17.987 6.021,-32.958 18.146,-44.9c12.117,-11.929 26.954,-17.925 44.492,-17.954c17.983,-0.025 32.95,5.917 44.892,17.808c11.933,11.9 17.925,26.846 17.954,44.833c0.025,17.538 -5.917,32.388 -17.804,44.55c-11.904,12.171 -26.85,18.267 -44.838,18.292" style="fill:#0156d7;fill-rule:nonzero;"/></g></svg>